<svg xmlns="http://www.w3.org/2000/svg" width="564" height="1037" viewBox="0 0 564 1037">
    <defs fill="#00e660">
        <clipPath id="7fdpblv10a" fill="#00e660">
            <path fill="#00ff64" stroke="#00ff81" d="M0 0H564V1037H0z" transform="translate(1356 2052)"/>
        </clipPath>
    </defs>
    <g clip-path="url(#00ff58pblv10a)" transform="translate(-1356 -2052)">
        <path fill="#00f700" d="M14079.5 430a418.094 418.094 0 0 1-42.073-2.124 412.561 412.561 0 0 1-40.858-6.236c-13.258-2.713-26.526-6.125-39.436-10.14-12.766-3.97-25.485-8.626-37.807-13.838a411.509 411.509 0 0 1-69.9-37.94 413.784 413.784 0 0 1-111.148-111.149 411.433 411.433 0 0 1-37.939-69.9c-5.21-12.317-9.866-25.037-13.838-37.807-4.015-12.908-7.426-26.176-10.14-39.436a412.226 412.226 0 0 1-6.235-40.858 417.574 417.574 0 0 1 0-84.147 412.228 412.228 0 0 1 6.235-40.858c2.714-13.26 6.125-26.528 10.14-39.436 3.972-12.77 8.628-25.49 13.838-37.807a411.456 411.456 0 0 1 37.939-69.9 413.784 413.784 0 0 1 111.148-111.149 411.545 411.545 0 0 1 69.9-37.94c12.321-5.212 25.041-9.867 37.807-13.838 12.909-4.015 26.178-7.427 39.436-10.14a412.561 412.561 0 0 1 40.858-6.236 417.672 417.672 0 0 1 84.146 0 412.62 412.62 0 0 1 40.858 6.236c13.256 2.712 26.523 6.124 39.436 10.14 12.765 3.97 25.484 8.626 37.807 13.838a411.554 411.554 0 0 1 69.9 37.94 413.784 413.784 0 0 1 111.148 111.149 411.5 411.5 0 0 1 37.939 69.9c5.21 12.317 9.866 25.037 13.838 37.807 4.015 12.907 7.426 26.175 10.14 39.436a412.2 412.2 0 0 1 6.235 40.858 417.574 417.574 0 0 1 0 84.147 412.2 412.2 0 0 1-6.235 40.858c-2.714 13.26-6.125 26.529-10.14 39.436-3.972 12.77-8.628 25.49-13.838 37.807a411.547 411.547 0 0 1-37.939 69.9 413.784 413.784 0 0 1-111.148 111.149 411.518 411.518 0 0 1-69.9 37.94c-12.322 5.212-25.042 9.867-37.807 13.838-12.912 4.016-26.18 7.427-39.436 10.14a412.62 412.62 0 0 1-40.858 6.236A418.094 418.094 0 0 1 14079.5 430zm0-597.7a187.574 187.574 0 0 0-37.526 3.783 185.282 185.282 0 0 0-34.952 10.85 186.274 186.274 0 0 0-31.629 17.168 187.21 187.21 0 0 0-50.294 50.294 186.165 186.165 0 0 0-17.168 31.629 185.274 185.274 0 0 0-10.85 34.952 188.007 188.007 0 0 0 0 75.053 185.274 185.274 0 0 0 10.85 34.952 186.165 186.165 0 0 0 17.168 31.629 187.213 187.213 0 0 0 50.294 50.295 186.252 186.252 0 0 0 31.629 17.168 185.282 185.282 0 0 0 34.952 10.85 188.017 188.017 0 0 0 75.053 0 185.282 185.282 0 0 0 34.952-10.85 186.181 186.181 0 0 0 31.628-17.168 187.235 187.235 0 0 0 50.295-50.295 186.177 186.177 0 0 0 17.168-31.629 185.274 185.274 0 0 0 10.85-34.952 188.007 188.007 0 0 0 0-75.053 185.274 185.274 0 0 0-10.85-34.952 186.2 186.2 0 0 0-17.168-31.629 187.233 187.233 0 0 0-50.295-50.294 186.2 186.2 0 0 0-31.628-17.168 185.282 185.282 0 0 0-34.952-10.85 187.589 187.589 0 0 0-37.527-3.783z" opacity="0.1" transform="translate(-12160 2536)"/>
    </g>
</svg>